<svg xmlns="http://www.w3.org/2000/svg" viewBox="0 0 512 512" role="img" aria-label="HumanChain logo">
  <defs>
    <linearGradient id="hc-bg" x1="86" x2="426" y1="64" y2="448" gradientUnits="userSpaceOnUse">
      <stop stop-color="#17312f"/>
      <stop offset=".58" stop-color="#246b55"/>
      <stop offset="1" stop-color="#b98218"/>
    </linearGradient>
    <linearGradient id="hc-line" x1="112" x2="406" y1="328" y2="186" gradientUnits="userSpaceOnUse">
      <stop stop-color="#fff8e9"/>
      <stop offset=".5" stop-color="#d6a33a"/>
      <stop offset="1" stop-color="#fff8e9"/>
    </linearGradient>
    <filter id="hc-shadow" x="-20%" y="-20%" width="140%" height="140%">
      <feDropShadow dx="0" dy="18" stdDeviation="18" flood-color="#0d1c1a" flood-opacity=".32"/>
    </filter>
  </defs>
  <rect width="512" height="512" rx="132" fill="url(#hc-bg)"/>
  <g filter="url(#hc-shadow)">
    <circle cx="256" cy="256" r="142" fill="none" stroke="#fff8e9" stroke-opacity=".9" stroke-width="24"/>
    <path d="M154 256c34-48 76-73 126-73 54 0 90 26 108 75" fill="none" stroke="#fff8e9" stroke-opacity=".72" stroke-width="20" stroke-linecap="round"/>
    <path d="M130 326c70-94 139 28 219-62 29-33 55-50 92-53" fill="none" stroke="url(#hc-line)" stroke-width="28" stroke-linecap="round"/>
    <circle cx="130" cy="326" r="22" fill="#d6a33a" stroke="#fff8e9" stroke-width="10"/>
    <circle cx="349" cy="264" r="22" fill="#d6a33a" stroke="#fff8e9" stroke-width="10"/>
    <circle cx="441" cy="211" r="22" fill="#d6a33a" stroke="#fff8e9" stroke-width="10"/>
    <path d="M216 186c5-36 20-60 40-60s35 24 40 60M216 326c5 36 20 60 40 60s35-24 40-60" fill="none" stroke="#fff8e9" stroke-opacity=".82" stroke-width="18" stroke-linecap="round"/>
  </g>
</svg>
