<svg xmlns="http://www.w3.org/2000/svg" viewBox="0 0 960 640" role="img" aria-label="Black and white realistic scene of a hand writing on the last page of a notebook">
  <defs><linearGradient id="bg" x1="0" x2="1" y1="0" y2="1"><stop offset="0" stop-color="#f1eee6"/><stop offset=".54" stop-color="#a19d95"/><stop offset="1" stop-color="#222"/></linearGradient><filter id="shadow"><feDropShadow dx="0" dy="18" stdDeviation="18" flood-color="#111" flood-opacity=".35"/></filter><filter id="grain"><feTurbulence baseFrequency=".78" numOctaves="3" seed="219"/><feColorMatrix type="saturate" values="0"/><feComponentTransfer><feFuncA type="table" tableValues="0 .18"/></feComponentTransfer><feBlend in="SourceGraphic" mode="multiply"/></filter></defs>
  <rect width="960" height="640" fill="url(#bg)"/><path d="M0 420h960v220H0z" fill="#4a4a4a" opacity=".48"/>
  <g filter="url(#shadow)"><rect x="205" y="122" width="430" height="390" rx="18" fill="#eee9dc"/><path d="M265 198h300M265 258h300M265 318h260M265 378h210" stroke="#222" stroke-opacity=".22" stroke-width="8" stroke-linecap="round"/><path d="M250 122v390" stroke="#111" stroke-opacity=".22" stroke-width="9"/></g>
  <g filter="url(#shadow)"><path d="M574 354c68-72 119-80 156-22l-150 122c-56 16-92 9-107-20 25-22 58-49 101-80z" fill="#d8d4c8"/><path d="M574 354l156-122" stroke="#151515" stroke-width="14" stroke-linecap="round"/></g>
  <path d="M176 410c113-78 209 31 305-42 93-70 154-44 267 20" fill="none" stroke="#f6f1e2" stroke-width="11" stroke-linecap="round"/><path d="M176 410c113-78 209 31 305-42 93-70 154-44 267 20" fill="none" stroke="#111" stroke-opacity=".32" stroke-width="4" stroke-linecap="round"/><rect width="960" height="640" filter="url(#grain)" opacity=".58"/>
</svg>
