<svg xmlns="http://www.w3.org/2000/svg" viewBox="0 0 960 640" role="img" aria-label="Black and white realistic story scene of a person at a blue door with a cracked cup">
  <defs>
    <linearGradient id="wall" x1="0" x2="1" y1="0" y2="1">
      <stop offset="0" stop-color="#f2f0ea"/>
      <stop offset="0.52" stop-color="#c8c4b8"/>
      <stop offset="1" stop-color="#5d5d58"/>
    </linearGradient>
    <radialGradient id="light" cx="64%" cy="35%" r="55%">
      <stop offset="0" stop-color="#ffffff" stop-opacity="0.72"/>
      <stop offset="0.45" stop-color="#d8d8d2" stop-opacity="0.28"/>
      <stop offset="1" stop-color="#222" stop-opacity="0"/>
    </radialGradient>
    <filter id="grain">
      <feTurbulence type="fractalNoise" baseFrequency="0.82" numOctaves="3" seed="31"/>
      <feColorMatrix type="saturate" values="0"/>
      <feComponentTransfer>
        <feFuncA type="table" tableValues="0 0.22"/>
      </feComponentTransfer>
      <feBlend in="SourceGraphic" mode="multiply"/>
    </filter>
    <filter id="softShadow" x="-20%" y="-20%" width="140%" height="140%">
      <feDropShadow dx="0" dy="16" stdDeviation="18" flood-color="#111" flood-opacity="0.32"/>
    </filter>
  </defs>
  <rect width="960" height="640" fill="url(#wall)"/>
  <rect width="960" height="640" fill="url(#light)"/>
  <path d="M0 462h960v178H0z" fill="#8b897f" opacity="0.48"/>
  <path d="M240 520c145 42 338 42 505 2" fill="none" stroke="#111" stroke-opacity="0.22" stroke-width="34" stroke-linecap="round"/>
  <g filter="url(#softShadow)">
    <rect x="393" y="92" width="216" height="377" rx="8" fill="#242b29"/>
    <rect x="424" y="121" width="148" height="321" rx="4" fill="#5d6661"/>
    <rect x="452" y="157" width="92" height="98" rx="3" fill="#bfc2ba" opacity="0.34"/>
    <rect x="452" y="293" width="92" height="112" rx="3" fill="#2c3532" opacity="0.52"/>
    <circle cx="548" cy="286" r="10" fill="#d6d2c6"/>
  </g>
  <path d="M609 96l184 68v236l-184 68z" fill="#344541" opacity="0.95" filter="url(#softShadow)"/>
  <path d="M613 120c88 52 123 138 96 261" fill="none" stroke="#f7f4e8" stroke-opacity="0.26" stroke-width="28" stroke-linecap="round"/>
  <g filter="url(#softShadow)">
    <ellipse cx="468" cy="272" rx="43" ry="49" fill="#222"/>
    <path d="M394 468c17-112 43-169 79-169 42 0 75 60 95 169z" fill="#4c4d49"/>
    <rect x="548" y="337" width="58" height="92" rx="12" fill="#151515" stroke="#dedbd0" stroke-opacity="0.42" stroke-width="4"/>
    <path d="M564 360h25M564 382h18" stroke="#f7f4e8" stroke-opacity="0.45" stroke-width="5" stroke-linecap="round"/>
  </g>
  <g filter="url(#softShadow)">
    <path d="M151 380h110v78c0 52-25 83-55 83s-55-31-55-83z" fill="#e4ded1" stroke="#312f2b" stroke-width="7"/>
    <path d="M261 405c47-4 63 64 8 76" fill="none" stroke="#312f2b" stroke-width="9" stroke-linecap="round"/>
    <path d="M209 386l-22 33 27 24-21 48 25 47" fill="none" stroke="#171717" stroke-width="9" stroke-linecap="round" stroke-linejoin="round"/>
  </g>
  <path d="M88 404c142-128 230 40 362-92 128-128 196 30 355-107" fill="none" stroke="#f5f0df" stroke-opacity="0.7" stroke-width="10" stroke-linecap="round"/>
  <path d="M88 404c142-128 230 40 362-92 128-128 196 30 355-107" fill="none" stroke="#111" stroke-opacity="0.28" stroke-width="4" stroke-linecap="round"/>
  <circle cx="88" cy="404" r="15" fill="#efead9" stroke="#111" stroke-width="5"/>
  <circle cx="450" cy="312" r="15" fill="#efead9" stroke="#111" stroke-width="5"/>
  <circle cx="805" cy="205" r="15" fill="#efead9" stroke="#111" stroke-width="5"/>
  <rect width="960" height="640" filter="url(#grain)" opacity="0.55"/>
</svg>
