<svg xmlns="http://www.w3.org/2000/svg" viewBox="0 0 960 640" role="img" aria-label="Black and white realistic scene of a verified human identity on a phone crossing borders">
  <defs><linearGradient id="g" x1="0" x2="1" y1="0" y2="1"><stop offset="0" stop-color="#f2f0e8"/><stop offset=".48" stop-color="#a7aaa4"/><stop offset="1" stop-color="#202423"/></linearGradient><filter id="s"><feDropShadow dx="0" dy="18" stdDeviation="18" flood-color="#111" flood-opacity=".34"/></filter><filter id="grain"><feTurbulence baseFrequency=".8" numOctaves="3" seed="104"/><feColorMatrix type="saturate" values="0"/><feComponentTransfer><feFuncA type="table" tableValues="0 .18"/></feComponentTransfer><feBlend in="SourceGraphic" mode="multiply"/></filter></defs>
  <rect width="960" height="640" fill="url(#g)"/><path d="M0 448h960v192H0z" fill="#4e534f" opacity=".43"/>
  <g filter="url(#s)"><rect x="392" y="126" width="176" height="338" rx="34" fill="#111" stroke="#efeee8" stroke-opacity=".4" stroke-width="6"/><rect x="416" y="170" width="128" height="214" rx="10" fill="#d8d8d0" opacity=".74"/><circle cx="480" cy="246" r="42" fill="#2a2a2a"/><path d="M412 371c15-66 37-99 68-99s54 33 69 99z" fill="#555"/><path d="M444 421h72" stroke="#eee" stroke-opacity=".56" stroke-width="7" stroke-linecap="round"/></g>
  <path d="M94 342c132-111 240 38 365-62 142-114 212 46 392-69" fill="none" stroke="#f7f2e4" stroke-width="11" stroke-linecap="round"/><path d="M94 342c132-111 240 38 365-62 142-114 212 46 392-69" fill="none" stroke="#111" stroke-opacity=".32" stroke-width="4" stroke-linecap="round"/><circle cx="94" cy="342" r="15" fill="#eee8d7" stroke="#111" stroke-width="5"/><circle cx="459" cy="280" r="15" fill="#eee8d7" stroke="#111" stroke-width="5"/><circle cx="851" cy="211" r="15" fill="#eee8d7" stroke="#111" stroke-width="5"/>
  <path d="M132 516c196 46 480 44 695-3" fill="none" stroke="#111" stroke-opacity=".22" stroke-width="34" stroke-linecap="round"/><rect width="960" height="640" filter="url(#grain)" opacity=".55"/>
</svg>
