<svg xmlns="http://www.w3.org/2000/svg" viewBox="0 0 960 640" role="img" aria-label="Black and white realistic story scene of a human looking at a phone in a dark room">
  <defs>
    <radialGradient id="phoneGlow" cx="56%" cy="55%" r="48%">
      <stop offset="0" stop-color="#fff" stop-opacity="0.62"/>
      <stop offset="0.5" stop-color="#b7c1c7" stop-opacity="0.22"/>
      <stop offset="1" stop-color="#111" stop-opacity="0"/>
    </radialGradient>
    <linearGradient id="night" x1="0" x2="1" y1="0" y2="1">
      <stop offset="0" stop-color="#5b5f5e"/>
      <stop offset="0.48" stop-color="#252829"/>
      <stop offset="1" stop-color="#0e0f10"/>
    </linearGradient>
    <filter id="shadow" x="-20%" y="-20%" width="140%" height="140%">
      <feDropShadow dx="0" dy="18" stdDeviation="16" flood-color="#000" flood-opacity="0.42"/>
    </filter>
    <filter id="grain">
      <feTurbulence baseFrequency="0.88" numOctaves="3" seed="67"/>
      <feColorMatrix type="saturate" values="0"/>
      <feComponentTransfer><feFuncA type="table" tableValues="0 0.2"/></feComponentTransfer>
      <feBlend in="SourceGraphic" mode="screen"/>
    </filter>
  </defs>
  <rect width="960" height="640" fill="url(#night)"/>
  <rect width="960" height="640" fill="url(#phoneGlow)"/>
  <path d="M80 80h208v340H80z" fill="#f6f6f0" opacity="0.12"/>
  <path d="M0 468h960v172H0z" fill="#111" opacity="0.24"/>
  <path d="M220 527c130 46 348 48 519 3" fill="none" stroke="#000" stroke-opacity="0.46" stroke-width="36" stroke-linecap="round"/>
  <g filter="url(#shadow)">
    <ellipse cx="477" cy="210" rx="56" ry="64" fill="#1b1b1b"/>
    <path d="M350 512c27-177 65-264 128-264 67 0 119 89 154 264z" fill="#55514b"/>
    <rect x="535" y="337" width="76" height="128" rx="17" fill="#090909" stroke="#eeeeea" stroke-opacity="0.42" stroke-width="5"/>
    <path d="M554 367h35M554 395h25" stroke="#fff" stroke-opacity="0.55" stroke-width="8" stroke-linecap="round"/>
  </g>
  <path d="M572 338c110 55 170 132 198 231" fill="none" stroke="#fafafa" stroke-opacity="0.16" stroke-width="46" stroke-linecap="round"/>
  <path d="M122 428c120-103 218-25 329-124 151-134 206 50 361-67" fill="none" stroke="#f3efe2" stroke-opacity="0.68" stroke-width="10" stroke-linecap="round"/>
  <path d="M122 428c120-103 218-25 329-124 151-134 206 50 361-67" fill="none" stroke="#111" stroke-opacity="0.4" stroke-width="4" stroke-linecap="round"/>
  <circle cx="122" cy="428" r="15" fill="#efead9" stroke="#111" stroke-width="5"/>
  <circle cx="451" cy="304" r="15" fill="#efead9" stroke="#111" stroke-width="5"/>
  <circle cx="812" cy="237" r="15" fill="#efead9" stroke="#111" stroke-width="5"/>
  <rect width="960" height="640" filter="url(#grain)" opacity="0.46"/>
</svg>
