<svg xmlns="http://www.w3.org/2000/svg" viewBox="0 0 960 640" role="img" aria-label="Black and white realistic scene of coins resting in human palms">
  <defs><linearGradient id="bg" x1="0" x2="1" y1="0" y2="1"><stop offset="0" stop-color="#f3f0e8"/><stop offset=".52" stop-color="#a5a19a"/><stop offset="1" stop-color="#252525"/></linearGradient><filter id="shadow"><feDropShadow dx="0" dy="16" stdDeviation="18" flood-color="#111" flood-opacity=".35"/></filter><filter id="grain"><feTurbulence baseFrequency=".78" numOctaves="3" seed="217"/><feColorMatrix type="saturate" values="0"/><feComponentTransfer><feFuncA type="table" tableValues="0 .18"/></feComponentTransfer><feBlend in="SourceGraphic" mode="multiply"/></filter></defs>
  <rect width="960" height="640" fill="url(#bg)"/><path d="M0 420h960v220H0z" fill="#4b4b4b" opacity=".48"/>
  <g filter="url(#shadow)" fill="#d8d4c8"><path d="M142 388c90-60 196-74 318-23 31 13 58 36 81 69-103 42-205 47-307 15-63-20-99-40-108-59-4-8 5-14 16-2z"/><path d="M818 389c-89-61-195-75-318-24-31 13-59 36-82 69 104 42 206 47 308 15 63-20 99-40 108-59 4-8-5-14-16-1z"/></g>
  <g filter="url(#shadow)" fill="#eee9db" stroke="#151515" stroke-width="6"><ellipse cx="418" cy="310" rx="42" ry="24"/><ellipse cx="485" cy="292" rx="44" ry="25"/><ellipse cx="552" cy="318" rx="42" ry="24"/><ellipse cx="462" cy="358" rx="38" ry="22"/><ellipse cx="522" cy="366" rx="38" ry="22"/></g>
  <path d="M176 350c112-69 220 34 304-42 85-77 153-13 279 32" fill="none" stroke="#f6f1e2" stroke-width="11" stroke-linecap="round"/><path d="M176 350c112-69 220 34 304-42 85-77 153-13 279 32" fill="none" stroke="#111" stroke-opacity=".32" stroke-width="4" stroke-linecap="round"/><rect width="960" height="640" filter="url(#grain)" opacity=".58"/>
</svg>
