<svg xmlns="http://www.w3.org/2000/svg" viewBox="0 0 960 640" role="img" aria-label="Black and white realistic scene of blockchain blocks linked across a table">
  <defs><linearGradient id="g" x1="0" x2="1" y1="0" y2="1"><stop offset="0" stop-color="#ecebe4"/><stop offset=".5" stop-color="#979a95"/><stop offset="1" stop-color="#262827"/></linearGradient><filter id="s"><feDropShadow dx="0" dy="16" stdDeviation="16" flood-color="#111" flood-opacity=".32"/></filter><filter id="grain"><feTurbulence baseFrequency=".76" numOctaves="3" seed="102"/><feColorMatrix type="saturate" values="0"/><feComponentTransfer><feFuncA type="table" tableValues="0 .18"/></feComponentTransfer><feBlend in="SourceGraphic" mode="multiply"/></filter></defs>
  <rect width="960" height="640" fill="url(#g)"/><path d="M0 426h960v214H0z" fill="#555" opacity=".48"/>
  <g filter="url(#s)" fill="#d8d6cc" stroke="#1b1b1b" stroke-width="6"><rect x="126" y="286" width="126" height="104" rx="8"/><rect x="322" y="220" width="126" height="104" rx="8"/><rect x="518" y="286" width="126" height="104" rx="8"/><rect x="714" y="220" width="126" height="104" rx="8"/></g>
  <path d="M252 338c48-50 65-60 70-66M448 272c48 50 64 60 70 66M644 338c48-50 64-60 70-66" fill="none" stroke="#f4eedc" stroke-width="12" stroke-linecap="round"/><path d="M252 338c48-50 65-60 70-66M448 272c48 50 64 60 70 66M644 338c48-50 64-60 70-66" fill="none" stroke="#111" stroke-opacity=".35" stroke-width="4" stroke-linecap="round"/>
  <path d="M154 326h68M350 260h68M546 326h68M742 260h68" stroke="#222" stroke-opacity=".42" stroke-width="8" stroke-linecap="round"/><path d="M168 356h42M364 290h42M560 356h42M756 290h42" stroke="#222" stroke-opacity=".28" stroke-width="6" stroke-linecap="round"/>
  <path d="M116 470c205 42 470 42 700 0" fill="none" stroke="#111" stroke-opacity=".2" stroke-width="34" stroke-linecap="round"/><rect width="960" height="640" filter="url(#grain)" opacity=".55"/>
</svg>
