<svg xmlns="http://www.w3.org/2000/svg" viewBox="0 0 960 640" role="img" aria-label="Black and white realistic scene of a small room with a laptop, white paper, and bitcoin seed idea">
  <defs><linearGradient id="g" x1="0" x2="1" y1="0" y2="1"><stop offset="0" stop-color="#f2f0e8"/><stop offset=".55" stop-color="#aaa69c"/><stop offset="1" stop-color="#323232"/></linearGradient><filter id="s"><feDropShadow dx="0" dy="18" stdDeviation="18" flood-color="#111" flood-opacity=".34"/></filter><filter id="grain"><feTurbulence baseFrequency=".8" numOctaves="3" seed="101"/><feColorMatrix type="saturate" values="0"/><feComponentTransfer><feFuncA type="table" tableValues="0 .18"/></feComponentTransfer><feBlend in="SourceGraphic" mode="multiply"/></filter></defs>
  <rect width="960" height="640" fill="url(#g)"/><path d="M0 412h960v228H0z" fill="#5d5a53" opacity=".52"/><path d="M188 426h584l-56 126H240z" fill="#7b766c" filter="url(#s)"/>
  <g filter="url(#s)"><rect x="366" y="208" width="232" height="142" rx="10" fill="#171717"/><rect x="386" y="228" width="192" height="94" rx="4" fill="#d8d6ce" opacity=".75"/><path d="M342 350h280l42 52H300z" fill="#222"/><path d="M420 378h126" stroke="#eee" stroke-opacity=".36" stroke-width="7" stroke-linecap="round"/></g>
  <g filter="url(#s)"><rect x="150" y="264" width="150" height="112" rx="8" fill="#f1eee3"/><path d="M177 302h92M177 332h70" stroke="#333" stroke-opacity=".45" stroke-width="8" stroke-linecap="round"/></g>
  <ellipse cx="694" cy="344" rx="38" ry="20" fill="#e9e4d4" stroke="#151515" stroke-width="6" filter="url(#s)"/><path d="M108 338c148-96 251 50 388-42 107-72 181-31 281 30" fill="none" stroke="#f4edda" stroke-width="10" stroke-linecap="round"/><path d="M108 338c148-96 251 50 388-42 107-72 181-31 281 30" fill="none" stroke="#111" stroke-opacity=".32" stroke-width="4" stroke-linecap="round"/><circle cx="108" cy="338" r="15" fill="#eee8d7" stroke="#111" stroke-width="5"/><circle cx="496" cy="296" r="15" fill="#eee8d7" stroke="#111" stroke-width="5"/><rect width="960" height="640" filter="url(#grain)" opacity=".55"/>
</svg>
