<svg xmlns="http://www.w3.org/2000/svg" viewBox="0 0 960 640" role="img" aria-label="Black and white realistic story scene of a cracked cup and notebook on a table">
  <defs>
    <linearGradient id="room" x1="0" x2="1" y1="0" y2="1">
      <stop offset="0" stop-color="#ece8dc"/>
      <stop offset="0.55" stop-color="#a9a59b"/>
      <stop offset="1" stop-color="#4c4b47"/>
    </linearGradient>
    <filter id="shadow" x="-20%" y="-20%" width="140%" height="140%">
      <feDropShadow dx="0" dy="18" stdDeviation="18" flood-color="#111" flood-opacity="0.32"/>
    </filter>
    <filter id="grain">
      <feTurbulence baseFrequency="0.76" numOctaves="3" seed="43"/>
      <feColorMatrix type="saturate" values="0"/>
      <feComponentTransfer><feFuncA type="table" tableValues="0 0.18"/></feComponentTransfer>
      <feBlend in="SourceGraphic" mode="multiply"/>
    </filter>
  </defs>
  <rect width="960" height="640" fill="url(#room)"/>
  <path d="M660 0h220v420H660z" fill="#fff" opacity="0.18"/>
  <path d="M0 370h960v270H0z" fill="#5f554b" opacity="0.55"/>
  <path d="M105 392h750l-70 168H170z" fill="#81786c" filter="url(#shadow)"/>
  <path d="M150 503c177 47 439 43 654-4" fill="none" stroke="#111" stroke-opacity="0.2" stroke-width="34" stroke-linecap="round"/>
  <g filter="url(#shadow)">
    <path d="M156 263h178v130c0 72-41 116-89 116s-89-44-89-116z" fill="#e9e4d7" stroke="#222" stroke-width="8"/>
    <path d="M334 300c73-8 95 100 9 119" fill="none" stroke="#222" stroke-width="12" stroke-linecap="round"/>
    <path d="M252 270l-33 48 41 36-31 74 37 72" fill="none" stroke="#111" stroke-width="11" stroke-linecap="round" stroke-linejoin="round"/>
  </g>
  <g filter="url(#shadow)">
    <rect x="462" y="250" width="255" height="170" rx="12" fill="#eee9dc" stroke="#3b3934" stroke-width="5"/>
    <path d="M500 294h154M500 331h119M500 367h146" stroke="#2e2d2a" stroke-opacity="0.55" stroke-width="8" stroke-linecap="round"/>
    <path d="M462 250c35 24 68 31 111 18" fill="none" stroke="#fff" stroke-opacity="0.32" stroke-width="10"/>
  </g>
  <path d="M130 326c171-84 272 71 435-5 103-48 179-24 255 56" fill="none" stroke="#f6f1e2" stroke-opacity="0.68" stroke-width="10" stroke-linecap="round"/>
  <path d="M130 326c171-84 272 71 435-5 103-48 179-24 255 56" fill="none" stroke="#111" stroke-opacity="0.28" stroke-width="4" stroke-linecap="round"/>
  <circle cx="130" cy="326" r="15" fill="#efead9" stroke="#111" stroke-width="5"/>
  <circle cx="565" cy="321" r="15" fill="#efead9" stroke="#111" stroke-width="5"/>
  <rect width="960" height="640" filter="url(#grain)" opacity="0.62"/>
</svg>
