<svg xmlns="http://www.w3.org/2000/svg" viewBox="0 0 960 640" role="img" aria-label="Black and white realistic scene of two people sharing food at a bus stop at night">
  <defs><radialGradient id="lamp" cx="46%" cy="20%" r="42%"><stop offset="0" stop-color="#fff" stop-opacity=".76"/><stop offset=".5" stop-color="#ddd" stop-opacity=".2"/><stop offset="1" stop-color="#111" stop-opacity="0"/></radialGradient><linearGradient id="bg" x1="0" x2="1" y1="0" y2="1"><stop offset="0" stop-color="#ededE8"/><stop offset=".48" stop-color="#858580"/><stop offset="1" stop-color="#191919"/></linearGradient><filter id="shadow"><feDropShadow dx="0" dy="18" stdDeviation="18" flood-color="#111" flood-opacity=".42"/></filter><filter id="grain"><feTurbulence baseFrequency=".83" numOctaves="3" seed="218"/><feColorMatrix type="saturate" values="0"/><feComponentTransfer><feFuncA type="table" tableValues="0 .2"/></feComponentTransfer><feBlend in="SourceGraphic" mode="multiply"/></filter></defs>
  <rect width="960" height="640" fill="url(#bg)"/><rect width="960" height="640" fill="url(#lamp)"/><path d="M0 438h960v202H0z" fill="#343434" opacity=".62"/>
  <g filter="url(#shadow)"><path d="M142 218h590" stroke="#161616" stroke-width="18" stroke-linecap="round"/><path d="M188 218v270M686 218v270" stroke="#161616" stroke-width="16" stroke-linecap="round"/><rect x="230" y="248" width="284" height="132" rx="10" fill="#dedbd1" opacity=".78"/></g>
  <g filter="url(#shadow)" fill="#151515"><ellipse cx="372" cy="350" rx="34" ry="42"/><path d="M310 514c11-103 31-154 62-154 32 0 54 51 68 154z"/><ellipse cx="556" cy="348" rx="34" ry="42"/><path d="M496 514c11-103 31-154 62-154 32 0 54 51 68 154z"/></g>
  <path d="M420 410c40 23 76 23 112 0" fill="none" stroke="#f5f0e2" stroke-width="12" stroke-linecap="round"/><path d="M182 390c92-72 170 34 271-28 86-53 143-40 236 20" fill="none" stroke="#f5f0e2" stroke-width="10" stroke-linecap="round"/><path d="M182 390c92-72 170 34 271-28 86-53 143-40 236 20" fill="none" stroke="#111" stroke-opacity=".34" stroke-width="4" stroke-linecap="round"/><rect width="960" height="640" filter="url(#grain)" opacity=".6"/>
</svg>
