<svg xmlns="http://www.w3.org/2000/svg" viewBox="0 0 960 640" role="img" aria-label="Black and white realistic scene of a hand holding a private key beside a bitcoin coin">
  <defs><linearGradient id="bg" x1="0" x2="1" y1="0" y2="1"><stop offset="0" stop-color="#f2f1eb"/><stop offset=".55" stop-color="#999"/><stop offset="1" stop-color="#202020"/></linearGradient><filter id="shadow"><feDropShadow dx="0" dy="16" stdDeviation="18" flood-color="#111" flood-opacity=".34"/></filter><filter id="grain"><feTurbulence baseFrequency=".78" numOctaves="3" seed="214"/><feColorMatrix type="saturate" values="0"/><feComponentTransfer><feFuncA type="table" tableValues="0 .18"/></feComponentTransfer><feBlend in="SourceGraphic" mode="multiply"/></filter></defs>
  <rect width="960" height="640" fill="url(#bg)"/><path d="M0 420h960v220H0z" fill="#4b4b4b" opacity=".48"/>
  <g filter="url(#shadow)"><path d="M210 392c70-46 148-48 236-5l90 44c46 22 91 18 136-10l86-54c34-21 71 17 46 49-80 103-208 140-384 110-96-16-177-49-241-99-28-22-1-58 31-35z" fill="#d7d4ca"/><path d="M220 394c110 64 244 73 398 28" fill="none" stroke="#222" stroke-opacity=".32" stroke-width="9" stroke-linecap="round"/></g>
  <g filter="url(#shadow)"><circle cx="612" cy="304" r="62" fill="#e8e4d7" stroke="#161616" stroke-width="8"/><path d="M594 264v82M626 269c28 10 25 42-5 47 34 7 36 43-6 50M576 286h70M576 334h70" stroke="#181818" stroke-width="9" stroke-linecap="round" fill="none"/></g>
  <g filter="url(#shadow)"><path d="M316 286h268" stroke="#101010" stroke-width="18" stroke-linecap="round"/><circle cx="288" cy="286" r="38" fill="none" stroke="#101010" stroke-width="15"/><path d="M498 286v46M548 286v38" stroke="#101010" stroke-width="15" stroke-linecap="round"/></g>
  <path d="M122 342c111-80 199 33 323-46 96-61 164-34 300 38" fill="none" stroke="#f4efe0" stroke-width="10" stroke-linecap="round"/><path d="M122 342c111-80 199 33 323-46 96-61 164-34 300 38" fill="none" stroke="#111" stroke-opacity=".34" stroke-width="4" stroke-linecap="round"/><rect width="960" height="640" filter="url(#grain)" opacity=".58"/>
</svg>
