<svg xmlns="http://www.w3.org/2000/svg" viewBox="0 0 960 640" role="img" aria-label="Black and white realistic scene of a notebook with one final page">
  <defs><linearGradient id="g" x1="0" x2="1" y1="0" y2="1"><stop offset="0" stop-color="#f0ede3"/><stop offset=".56" stop-color="#a29c90"/><stop offset="1" stop-color="#3b3732"/></linearGradient><filter id="s"><feDropShadow dx="0" dy="18" stdDeviation="18" flood-color="#111" flood-opacity=".32"/></filter><filter id="grain"><feTurbulence baseFrequency=".78" numOctaves="3" seed="105"/><feColorMatrix type="saturate" values="0"/><feComponentTransfer><feFuncA type="table" tableValues="0 .18"/></feComponentTransfer><feBlend in="SourceGraphic" mode="multiply"/></filter></defs>
  <rect width="960" height="640" fill="url(#g)"/><path d="M0 410h960v230H0z" fill="#625a50" opacity=".5"/><path d="M152 434h656l-66 142H220z" fill="#7f7466" filter="url(#s)"/>
  <g filter="url(#s)"><rect x="270" y="160" width="420" height="264" rx="16" fill="#eee9dd" stroke="#222" stroke-width="7"/><path d="M480 160v264" stroke="#222" stroke-opacity=".24" stroke-width="5"/><path d="M322 220h108M322 263h130M322 306h88M532 224h98M532 268h118M532 312h72" stroke="#333" stroke-opacity=".42" stroke-width="8" stroke-linecap="round"/></g>
  <path d="M150 337c150-72 248 62 390-16 100-55 165-21 260 40" fill="none" stroke="#f6f1e2" stroke-width="10" stroke-linecap="round"/><path d="M150 337c150-72 248 62 390-16 100-55 165-21 260 40" fill="none" stroke="#111" stroke-opacity=".28" stroke-width="4" stroke-linecap="round"/><circle cx="150" cy="337" r="15" fill="#eee8d7" stroke="#111" stroke-width="5"/><circle cx="540" cy="321" r="15" fill="#eee8d7" stroke="#111" stroke-width="5"/><rect width="960" height="640" filter="url(#grain)" opacity=".55"/>
</svg>
