<svg xmlns="http://www.w3.org/2000/svg" viewBox="0 0 960 640" role="img" aria-label="Black and white realistic scene of a person approaching an Orb verification device">
  <defs><radialGradient id="glow" cx="58%" cy="34%" r="44%"><stop offset="0" stop-color="#fff" stop-opacity=".68"/><stop offset=".54" stop-color="#d8d8d3" stop-opacity=".25"/><stop offset="1" stop-color="#111" stop-opacity="0"/></radialGradient><linearGradient id="g" x1="0" x2="1" y1="0" y2="1"><stop offset="0" stop-color="#ededE6"/><stop offset=".55" stop-color="#8f948e"/><stop offset="1" stop-color="#222"/></linearGradient><filter id="s"><feDropShadow dx="0" dy="16" stdDeviation="16" flood-color="#111" flood-opacity=".36"/></filter><filter id="grain"><feTurbulence baseFrequency=".82" numOctaves="3" seed="103"/><feColorMatrix type="saturate" values="0"/><feComponentTransfer><feFuncA type="table" tableValues="0 .19"/></feComponentTransfer><feBlend in="SourceGraphic" mode="multiply"/></filter></defs>
  <rect width="960" height="640" fill="url(#g)"/><rect width="960" height="640" fill="url(#glow)"/><path d="M0 438h960v202H0z" fill="#4f514d" opacity=".48"/>
  <g filter="url(#s)"><circle cx="592" cy="252" r="96" fill="#e9e8df" stroke="#141414" stroke-width="8"/><circle cx="592" cy="252" r="48" fill="none" stroke="#111" stroke-opacity=".32" stroke-width="8"/><path d="M592 348v116" stroke="#1f1f1f" stroke-width="18" stroke-linecap="round"/><path d="M536 468h112" stroke="#1f1f1f" stroke-width="18" stroke-linecap="round"/></g>
  <g filter="url(#s)"><ellipse cx="338" cy="238" rx="48" ry="56" fill="#171717"/><path d="M246 502c20-159 50-238 94-238 50 0 88 82 112 238z" fill="#444"/></g>
  <path d="M118 378c127-84 214 47 346-58 90-72 160-56 266 27" fill="none" stroke="#f8f4e6" stroke-width="11" stroke-linecap="round"/><path d="M118 378c127-84 214 47 346-58 90-72 160-56 266 27" fill="none" stroke="#111" stroke-opacity=".32" stroke-width="4" stroke-linecap="round"/><circle cx="118" cy="378" r="15" fill="#eee8d7" stroke="#111" stroke-width="5"/><circle cx="464" cy="320" r="15" fill="#eee8d7" stroke="#111" stroke-width="5"/><rect width="960" height="640" filter="url(#grain)" opacity=".55"/>
</svg>
