<svg xmlns="http://www.w3.org/2000/svg" viewBox="0 0 960 640" role="img" aria-label="Black and white realistic scene of verified human answers crossing after Orb verification">
  <defs><radialGradient id="glow" cx="48%" cy="28%" r="48%"><stop offset="0" stop-color="#fff" stop-opacity=".72"/><stop offset=".52" stop-color="#ddd" stop-opacity=".2"/><stop offset="1" stop-color="#111" stop-opacity="0"/></radialGradient><linearGradient id="bg" x1="0" x2="1" y1="0" y2="1"><stop offset="0" stop-color="#f0eee8"/><stop offset=".5" stop-color="#8c8f89"/><stop offset="1" stop-color="#1f1f1f"/></linearGradient><filter id="shadow"><feDropShadow dx="0" dy="18" stdDeviation="17" flood-color="#111" flood-opacity=".36"/></filter><filter id="grain"><feTurbulence baseFrequency=".82" numOctaves="3" seed="220"/><feColorMatrix type="saturate" values="0"/><feComponentTransfer><feFuncA type="table" tableValues="0 .19"/></feComponentTransfer><feBlend in="SourceGraphic" mode="multiply"/></filter></defs>
  <rect width="960" height="640" fill="url(#bg)"/><rect width="960" height="640" fill="url(#glow)"/><path d="M0 430h960v210H0z" fill="#4b4b4b" opacity=".5"/>
  <g filter="url(#shadow)"><circle cx="478" cy="226" r="78" fill="#e9e7dd" stroke="#141414" stroke-width="8"/><circle cx="478" cy="226" r="34" fill="none" stroke="#111" stroke-opacity=".35" stroke-width="7"/><path d="M478 304v118" stroke="#171717" stroke-width="16" stroke-linecap="round"/></g>
  <g filter="url(#shadow)" fill="#171717"><ellipse cx="242" cy="342" rx="36" ry="44"/><path d="M178 520c12-105 34-160 66-160 34 0 58 55 72 160z"/><ellipse cx="716" cy="342" rx="36" ry="44"/><path d="M650 520c12-105 34-160 66-160 34 0 58 55 72 160z"/></g>
  <path d="M238 396c95-96 168 50 241-70 73 120 151-23 240 70" fill="none" stroke="#f6f1e3" stroke-width="12" stroke-linecap="round"/>
  <path d="M238 396c95-96 168 50 241-70 73 120 151-23 240 70" fill="none" stroke="#111" stroke-opacity=".34" stroke-width="5" stroke-linecap="round"/>
  <circle cx="238" cy="396" r="17" fill="#e9e4d7" stroke="#111" stroke-width="6"/><circle cx="479" cy="326" r="17" fill="#e9e4d7" stroke="#111" stroke-width="6"/><circle cx="719" cy="396" r="17" fill="#e9e4d7" stroke="#111" stroke-width="6"/><rect width="960" height="640" filter="url(#grain)" opacity=".58"/>
</svg>
