<svg xmlns="http://www.w3.org/2000/svg" viewBox="0 0 960 640" role="img" aria-label="Black and white realistic story scene of a human chain across the world">
  <defs>
    <linearGradient id="sky" x1="0" x2="1" y1="0" y2="1">
      <stop offset="0" stop-color="#f3f1e8"/>
      <stop offset="0.42" stop-color="#aeb4ad"/>
      <stop offset="1" stop-color="#333936"/>
    </linearGradient>
    <radialGradient id="sun" cx="50%" cy="28%" r="38%">
      <stop offset="0" stop-color="#fff" stop-opacity="0.76"/>
      <stop offset="0.55" stop-color="#d5d6cd" stop-opacity="0.3"/>
      <stop offset="1" stop-color="#111" stop-opacity="0"/>
    </radialGradient>
    <filter id="shadow" x="-20%" y="-20%" width="140%" height="140%">
      <feDropShadow dx="0" dy="16" stdDeviation="15" flood-color="#111" flood-opacity="0.36"/>
    </filter>
    <filter id="grain">
      <feTurbulence baseFrequency="0.72" numOctaves="3" seed="91"/>
      <feColorMatrix type="saturate" values="0"/>
      <feComponentTransfer><feFuncA type="table" tableValues="0 0.2"/></feComponentTransfer>
      <feBlend in="SourceGraphic" mode="multiply"/>
    </filter>
  </defs>
  <rect width="960" height="640" fill="url(#sky)"/>
  <rect width="960" height="640" fill="url(#sun)"/>
  <path d="M0 450c160-64 313-80 462-48s313 10 498-54v292H0z" fill="#4d554f" opacity="0.62"/>
  <path d="M0 514c208-70 394-61 560-16s290 11 400-46v188H0z" fill="#222" opacity="0.42"/>
  <g filter="url(#shadow)">
    <circle cx="480" cy="288" r="154" fill="none" stroke="#f7f4e8" stroke-opacity="0.62" stroke-width="7"/>
    <path d="M336 249c92-34 184-34 288 0M332 333c100 46 197 45 296 0M480 134c-47 99-47 209 0 308M480 134c47 99 47 209 0 308" fill="none" stroke="#f7f4e8" stroke-opacity="0.48" stroke-width="6" stroke-linecap="round"/>
  </g>
  <path d="M168 355c120-92 203 46 312-78 102-116 160 34 300-48" fill="none" stroke="#f8f3e4" stroke-opacity="0.72" stroke-width="12" stroke-linecap="round"/>
  <path d="M168 355c120-92 203 46 312-78 102-116 160 34 300-48" fill="none" stroke="#111" stroke-opacity="0.35" stroke-width="4" stroke-linecap="round"/>
  <circle cx="168" cy="355" r="17" fill="#efead9" stroke="#111" stroke-width="5"/>
  <circle cx="480" cy="277" r="17" fill="#efead9" stroke="#111" stroke-width="5"/>
  <circle cx="780" cy="229" r="17" fill="#efead9" stroke="#111" stroke-width="5"/>
  <g filter="url(#shadow)" opacity="0.9">
    <ellipse cx="477" cy="472" rx="40" ry="47" fill="#151515"/>
    <path d="M397 622c17-106 43-157 82-157 41 0 74 53 95 157z" fill="#3f413e"/>
  </g>
  <rect width="960" height="640" filter="url(#grain)" opacity="0.5"/>
</svg>
